<svg xmlns="http://www.w3.org/2000/svg" width="35" height="35" viewBox="0 0 35 35">
  <g id="Group_878" data-name="Group 878" transform="translate(0.074 -0.294)">
    <circle id="Ellipse_128" data-name="Ellipse 128" cx="17.5" cy="17.5" r="17.5" transform="translate(-0.074 0.294)" fill="#ff0043"/>
    <g id="Group_872" data-name="Group 872" transform="translate(4.966 12.406) rotate(-30)">
      <path id="Path_715" data-name="Path 715" d="M3,1.522,3.254.376C3.3.174,3.423,0,3.63,0h9.81a.414.414,0,0,1,.377.376l.372,1.8a.239.239,0,0,1,0,.055h1.959a.8.8,0,0,1,.753.753l.159,1.043a.723.723,0,0,1-.753.753H.759a.721.721,0,0,1-.753-.753L.166,2.982a.8.8,0,0,1,.753-.753c2.615,0,5.473-.018,8.1-.018" transform="translate(0 0)" fill="none" stroke="#fff" stroke-linecap="round" stroke-linejoin="round" stroke-width="1"/>
      <path id="Path_716" data-name="Path 716" d="M4.463,0l-.4,4.914H0" transform="translate(11.288 5.35)" fill="none" stroke="#fff" stroke-linecap="round" stroke-linejoin="round" stroke-width="1"/>
      <path id="Path_717" data-name="Path 717" d="M4.462,4.914H.4L0,0" transform="translate(1.321 5.35)" fill="none" stroke="#fff" stroke-linecap="round" stroke-linejoin="round" stroke-width="1"/>
      <line id="Line_1" data-name="Line 1" x1="0.407" y2="5.053" transform="translate(14.948 10.265)" fill="none" stroke="#fff" stroke-linecap="round" stroke-linejoin="round" stroke-width="1"/>
      <path id="Path_718" data-name="Path 718" d="M9.066,0h3.759l-.312,3.876a1.176,1.176,0,0,1-1.13,1.13H1.442a1.172,1.172,0,0,1-1.13-1.13L0,0H3.759" transform="translate(2.123 15.318)" fill="none" stroke="#fff" stroke-linecap="round" stroke-linejoin="round" stroke-width="1"/>
      <line id="Line_2" data-name="Line 2" x1="0.407" y1="5.053" transform="translate(1.716 10.264)" fill="none" stroke="#fff" stroke-linecap="round" stroke-linejoin="round" stroke-width="1"/>
      <path id="Path_719" data-name="Path 719" d="M4.821,1.035A2.548,2.548,0,0,0,2.892,0,2.548,2.548,0,0,0,.962,1.035,4.57,4.57,0,0,0,0,3.921,4.57,4.57,0,0,0,.962,6.807a2.549,2.549,0,0,0,1.93,1.035A2.549,2.549,0,0,0,4.821,6.807a4.57,4.57,0,0,0,.962-2.886,4.57,4.57,0,0,0-.962-2.886Z" transform="translate(5.643 8.916)" fill="none" stroke="#fff" stroke-linecap="round" stroke-linejoin="round" stroke-width="1"/>
    </g>
  </g>
</svg>
