<svg xmlns="http://www.w3.org/2000/svg" width="35" height="35" viewBox="0 0 35 35">
  <g id="Group_877" data-name="Group 877" transform="translate(-0.286 -0.294)">
    <circle id="Ellipse_128" data-name="Ellipse 128" cx="17.5" cy="17.5" r="17.5" transform="translate(0.286 0.294)" fill="#ff0043"/>
    <g id="Group_871" data-name="Group 871" transform="translate(6.563 7.636)">
      <path id="Path_727" data-name="Path 727" d="M100.173,649.856c0-2.063-3.97-3.736-8.868-3.736s-8.868,1.673-8.868,3.736,3.97,3.736,8.868,3.736S100.173,651.919,100.173,649.856Z" transform="translate(-79.526 -646.12)" fill="none" stroke="#fff" stroke-linecap="round" stroke-linejoin="round" stroke-width="1"/>
      <path id="Path_728" data-name="Path 728" d="M82.836,686.917a1.861,1.861,0,0,0-.4,1.111c0,2.064,3.97,3.736,8.868,3.736s8.868-1.672,8.868-3.736a1.853,1.853,0,0,0-.391-1.1" transform="translate(-79.526 -679.31)" fill="none" stroke="#fff" stroke-linecap="round" stroke-linejoin="round" stroke-width="1"/>
      <path id="Path_729" data-name="Path 729" d="M96.8,722.607a2.038,2.038,0,0,1,.429,1.209c0,2.267-4.362,4.105-9.744,4.105s-9.744-1.838-9.744-4.105a2.045,2.045,0,0,1,.438-1.221" transform="translate(-75.705 -708.336)" fill="none" stroke="#fff" stroke-linecap="round" stroke-linejoin="round" stroke-width="1"/>
      <path id="Path_730" data-name="Path 730" d="M87.154,671.867l3.229,2.369s-7.779.155-11.779,5.284c-4-5.129-11.779-5.284-11.779-5.284l3.229-2.369" transform="translate(-66.825 -667.066)" fill="none" stroke="#fff" stroke-linecap="round" stroke-linejoin="round" stroke-width="1"/>
      <path id="Path_731" data-name="Path 731" d="M94.674,700.767c-.3.872-1.143.72-1.911.8a1.113,1.113,0,0,0-.714.35c-.618.69-1,2.056-1.776,2.264-.95.254-2.253-1.27-3.223-1.141s-1.837,1.936-2.816,1.936-1.844-1.809-2.816-1.936-2.273,1.395-3.223,1.141c-.773-.208-1.158-1.574-1.776-2.264a1.113,1.113,0,0,0-.714-.35c-.769-.081-1.607.07-1.912-.8-.274-.784.641-2.185,1.9-2.492,1.04,1.574,4.471,2.73,8.542,2.73s7.5-1.156,8.542-2.73C94.033,698.581,94.948,699.983,94.674,700.767Z" transform="translate(-72.455 -688.551)" fill="none" stroke="#fff" stroke-linejoin="round" stroke-width="1"/>
      <g id="Group_839" data-name="Group 839" transform="translate(8.298 2.703)">
        <line id="Line_3" data-name="Line 3" x1="0.679" transform="translate(0 0)" fill="none" stroke="#fff" stroke-miterlimit="10" stroke-width="1"/>
        <line id="Line_4" data-name="Line 4" x2="0.679" transform="translate(1.57 2.066)" fill="none" stroke="#fff" stroke-miterlimit="10" stroke-width="1"/>
        <line id="Line_5" data-name="Line 5" x1="0.679" transform="translate(3.141 0)" fill="none" stroke="#fff" stroke-miterlimit="10" stroke-width="1"/>
        <line id="Line_6" data-name="Line 6" x2="0.679" transform="translate(4.711 2.066)" fill="none" stroke="#fff" stroke-miterlimit="10" stroke-width="1"/>
        <line id="Line_7" data-name="Line 7" x1="0.679" transform="translate(6.282 0)" fill="none" stroke="#fff" stroke-miterlimit="10" stroke-width="1"/>
      </g>
    </g>
  </g>
</svg>
